{
	"asset":{
		"generator":"Khronos glTF Blender I/O v4.1.63",
		"version":"2.0"
	},
	"extensionsUsed":[
		"KHR_materials_transmission",
		"KHR_materials_specular",
		"KHR_materials_ior"
	],
	"scene":0,
	"scenes":[
		{
			"name":"Scene",
			"nodes":[
				0
			]
		}
	],
	"nodes":[
		{
			"mesh":0,
			"name":"100_park_001.obj",
			"rotation":[
				0.7071068286895752,
				0,
				0,
				0.7071068286895752
			]
		}
	],
	"materials":[
		{
			"doubleSided":true,
			"extensions":{
				"KHR_materials_transmission":{
					"transmissionFactor":0.8999999165534973
				},
				"KHR_materials_specular":{
					"specularColorFactor":[
						2.5999999046325684,
						2.5999999046325684,
						2.5999999046325684
					]
				},
				"KHR_materials_ior":{
					"ior":1
				}
			},
			"name":"building.011",
			"pbrMetallicRoughness":{
				"baseColorFactor":[
					0.3831239938735962,
					0.3831239938735962,
					0.3831239938735962,
					1
				],
				"metallicFactor":0,
				"roughnessFactor":0.5527864098548889
			}
		},
		{
			"doubleSided":true,
			"extensions":{
				"KHR_materials_transmission":{
					"transmissionFactor":0.8999999165534973
				},
				"KHR_materials_specular":{
					"specularColorFactor":[
						4.0,
						4.0,
						4.0
					]
				},
				"KHR_materials_ior":{
					"ior":1
				}
			},
			"name":"buildingDarker.011",
			"pbrMetallicRoughness":{
				"baseColorFactor":[
					0.4239409863948822,
					0.4239409863948822,
					0.4239409863948822,
					1
				],
				"metallicFactor":0,
				"roughnessFactor":0.5527864098548889
			}
		},
		{
			"doubleSided":true,
			"extensions":{
				"KHR_materials_transmission":{
					"transmissionFactor":1
				},
				"KHR_materials_specular":{
					"specularColorFactor":[
						2.0,
						2.0,
						2.0
					]
				},
				"KHR_materials_ior":{
					"ior":1
				}
			},
			"name":"building_windows.010",
			"pbrMetallicRoughness":{
				"baseColorFactor":[
					0.3794940114021301,
					0.4986740052700043,
					0.5607839822769165,
					1
				],
				"metallicFactor":0,
				"roughnessFactor":0.3675444722175598
			}
		}
	],
	"meshes":[
		{
			"name":"100_park_001.obj",
			"primitives":[
				{
					"attributes":{
						"POSITION":0,
						"NORMAL":1
					},
					"indices":2,
					"material":0
				},
				{
					"attributes":{
						"POSITION":3,
						"NORMAL":4
					},
					"indices":5,
					"material":1
				},
				{
					"attributes":{
						"POSITION":6,
						"NORMAL":7
					},
					"indices":8,
					"material":2
				}
			]
		}
	],
	"accessors":[
		{
			"bufferView":0,
			"componentType":5126,
			"count":14081,
			"max":[
				0.3483000099658966,
				0.4030730128288269,
				-2.8102499135000594e-16
			],
			"min":[
				-0.3483000099658966,
				-0.4225269854068756,
				-1.3600000143051147
			],
			"type":"VEC3"
		},
		{
			"bufferView":1,
			"componentType":5126,
			"count":14081,
			"type":"VEC3"
		},
		{
			"bufferView":2,
			"componentType":5123,
			"count":57456,
			"type":"SCALAR"
		},
		{
			"bufferView":3,
			"componentType":5126,
			"count":904,
			"max":[
				0.3483000099658966,
				0.4030730128288269,
				-0.27000001072883606
			],
			"min":[
				-0.3483000099658966,
				-0.4225269854068756,
				-1.3600000143051147
			],
			"type":"VEC3"
		},
		{
			"bufferView":4,
			"componentType":5126,
			"count":904,
			"type":"VEC3"
		},
		{
			"bufferView":5,
			"componentType":5123,
			"count":3816,
			"type":"SCALAR"
		},
		{
			"bufferView":6,
			"componentType":5126,
			"count":21931,
			"max":[
				0.3483000099658966,
				0.4225269854068756,
				-2.8102499135000594e-16
			],
			"min":[
				-0.3483000099658966,
				-0.4071449935436249,
				-1.3075499534606934
			],
			"type":"VEC3"
		},
		{
			"bufferView":7,
			"componentType":5126,
			"count":21931,
			"type":"VEC3"
		},
		{
			"bufferView":8,
			"componentType":5123,
			"count":41076,
			"type":"SCALAR"
		}
	],
	"bufferViews":[
		{
			"buffer":0,
			"byteLength":168972,
			"byteOffset":0,
			"target":34962
		},
		{
			"buffer":0,
			"byteLength":168972,
			"byteOffset":168972,
			"target":34962
		},
		{
			"buffer":0,
			"byteLength":114912,
			"byteOffset":337944,
			"target":34963
		},
		{
			"buffer":0,
			"byteLength":10848,
			"byteOffset":452856,
			"target":34962
		},
		{
			"buffer":0,
			"byteLength":10848,
			"byteOffset":463704,
			"target":34962
		},
		{
			"buffer":0,
			"byteLength":7632,
			"byteOffset":474552,
			"target":34963
		},
		{
			"buffer":0,
			"byteLength":263172,
			"byteOffset":482184,
			"target":34962
		},
		{
			"buffer":0,
			"byteLength":263172,
			"byteOffset":745356,
			"target":34962
		},
		{
			"buffer":0,
			"byteLength":82152,
			"byteOffset":1008528,
			"target":34963
		}
	],
	"buffers":[
		{
			"byteLength":1090680,
			"uri":"100_park_001.bin"
		}
	]
}
