{
	"asset":{
		"generator":"Khronos glTF Blender I/O v4.1.63",
		"version":"2.0"
	},
	"extensionsUsed":[
		"KHR_materials_transmission",
		"KHR_materials_specular",
		"KHR_materials_ior"
	],
	"scene":0,
	"scenes":[
		{
			"name":"Scene",
			"nodes":[
				0
			]
		}
	],
	"nodes":[
		{
			"mesh":0,
			"name":"919_Thrid.obj",
			"rotation":[
				0.7071068286895752,
				0,
				0,
				0.7071068286895752
			]
		}
	],
	"materials":[
		{
			"doubleSided":true,
			"extensions":{
				"KHR_materials_transmission":{
					"transmissionFactor":1
				},
				"KHR_materials_specular":{
					"specularColorFactor":[
						1.2000000476837158,
						1.2000000476837158,
						1.2000000476837158
					]
				},
				"KHR_materials_ior":{
					"ior":1
				}
			},
			"name":"building.001",
			"pbrMetallicRoughness":{
				"baseColorFactor":[
					0.523872971534729,
					0.6883959770202637,
					0.7741360068321228,
					1
				],
				"metallicFactor":0,
				"roughnessFactor":0.3675444722175598
			}
		},
		{
			"doubleSided":true,
			"extensions":{
				"KHR_materials_transmission":{
					"transmissionFactor":1
				},
				"KHR_materials_specular":{
					"specularColorFactor":[
						2.0,
						2.0,
						2.0
					]
				},
				"KHR_materials_ior":{
					"ior":1
				}
			},
			"name":"building_windows.001",
			"pbrMetallicRoughness":{
				"baseColorFactor":[
					0.3794940114021301,
					0.4986740052700043,
					0.5607839822769165,
					1
				],
				"metallicFactor":0,
				"roughnessFactor":0.3675444722175598
			}
		},
		{
			"doubleSided":true,
			"extensions":{
				"KHR_materials_transmission":{
					"transmissionFactor":1
				},
				"KHR_materials_specular":{
					"specularColorFactor":[
						1.2000000476837158,
						1.2000000476837158,
						1.2000000476837158
					]
				},
				"KHR_materials_ior":{
					"ior":1
				}
			},
			"name":"buildingDarker.001",
			"pbrMetallicRoughness":{
				"baseColorFactor":[
					0.39010900259017944,
					0.5126230120658875,
					0.5764709711074829,
					1
				],
				"metallicFactor":0,
				"roughnessFactor":0.3675444722175598
			}
		}
	],
	"meshes":[
		{
			"name":"919_Thrid.obj.001",
			"primitives":[
				{
					"attributes":{
						"POSITION":0,
						"NORMAL":1,
						"TEXCOORD_0":2
					},
					"indices":3,
					"material":0
				},
				{
					"attributes":{
						"POSITION":4,
						"NORMAL":5,
						"TEXCOORD_0":6
					},
					"indices":7,
					"material":1
				},
				{
					"attributes":{
						"POSITION":8,
						"NORMAL":9,
						"TEXCOORD_0":10
					},
					"indices":11,
					"material":2
				}
			]
		}
	],
	"accessors":[
		{
			"bufferView":0,
			"componentType":5126,
			"count":734,
			"max":[
				0.1459919959306717,
				0.14993999898433685,
				-1.7411099672317505
			],
			"min":[
				-0.284402996301651,
				-0.14565600454807281,
				-1.8952499628067017
			],
			"type":"VEC3"
		},
		{
			"bufferView":1,
			"componentType":5126,
			"count":734,
			"type":"VEC3"
		},
		{
			"bufferView":2,
			"componentType":5126,
			"count":734,
			"type":"VEC2"
		},
		{
			"bufferView":3,
			"componentType":5123,
			"count":1224,
			"type":"SCALAR"
		},
		{
			"bufferView":4,
			"componentType":5126,
			"count":14080,
			"max":[
				0.5213249921798706,
				0.3139500021934509,
				-0.0015750000020489097
			],
			"min":[
				-0.520799994468689,
				-0.3139500021934509,
				-1.7729300260543823
			],
			"type":"VEC3"
		},
		{
			"bufferView":5,
			"componentType":5126,
			"count":14080,
			"type":"VEC3"
		},
		{
			"bufferView":6,
			"componentType":5126,
			"count":14080,
			"type":"VEC2"
		},
		{
			"bufferView":7,
			"componentType":5123,
			"count":21120,
			"type":"SCALAR"
		},
		{
			"bufferView":8,
			"componentType":5126,
			"count":82649,
			"max":[
				0.5223749876022339,
				0.3149999976158142,
				0
			],
			"min":[
				-0.5223749876022339,
				-0.3149999976158142,
				-1.7745000123977661
			],
			"type":"VEC3"
		},
		{
			"bufferView":9,
			"componentType":5126,
			"count":82649,
			"type":"VEC3"
		},
		{
			"bufferView":10,
			"componentType":5126,
			"count":82649,
			"type":"VEC2"
		},
		{
			"bufferView":11,
			"componentType":5125,
			"count":189348,
			"type":"SCALAR"
		}
	],
	"bufferViews":[
		{
			"buffer":0,
			"byteLength":8808,
			"byteOffset":0,
			"target":34962
		},
		{
			"buffer":0,
			"byteLength":8808,
			"byteOffset":8808,
			"target":34962
		},
		{
			"buffer":0,
			"byteLength":5872,
			"byteOffset":17616,
			"target":34962
		},
		{
			"buffer":0,
			"byteLength":2448,
			"byteOffset":23488,
			"target":34963
		},
		{
			"buffer":0,
			"byteLength":168960,
			"byteOffset":25936,
			"target":34962
		},
		{
			"buffer":0,
			"byteLength":168960,
			"byteOffset":194896,
			"target":34962
		},
		{
			"buffer":0,
			"byteLength":112640,
			"byteOffset":363856,
			"target":34962
		},
		{
			"buffer":0,
			"byteLength":42240,
			"byteOffset":476496,
			"target":34963
		},
		{
			"buffer":0,
			"byteLength":991788,
			"byteOffset":518736,
			"target":34962
		},
		{
			"buffer":0,
			"byteLength":991788,
			"byteOffset":1510524,
			"target":34962
		},
		{
			"buffer":0,
			"byteLength":661192,
			"byteOffset":2502312,
			"target":34962
		},
		{
			"buffer":0,
			"byteLength":757392,
			"byteOffset":3163504,
			"target":34963
		}
	],
	"buffers":[
		{
			"byteLength":3920896,
			"uri":"919_Thrid_001.bin"
		}
	]
}
