{
	"asset":{
		"generator":"Khronos glTF Blender I/O v4.1.63",
		"version":"2.0"
	},
	"extensionsUsed":[
		"KHR_materials_transmission",
		"KHR_materials_specular",
		"KHR_materials_ior"
	],
	"scene":0,
	"scenes":[
		{
			"name":"Scene",
			"nodes":[
				0
			]
		}
	],
	"nodes":[
		{
			"mesh":0,
			"name":"one mad.obj",
			"rotation":[
				0.7071068286895752,
				0,
				0,
				0.7071068286895752
			]
		}
	],
	"materials":[
		{
			"doubleSided":true,
			"extensions":{
				"KHR_materials_transmission":{
					"transmissionFactor":1
				},
				"KHR_materials_specular":{
					"specularColorFactor":[
						1.399999976158142,
						1.399999976158142,
						1.399999976158142
					]
				},
				"KHR_materials_ior":{
					"ior":1
				}
			},
			"name":"one_madison",
			"pbrMetallicRoughness":{
				"baseColorFactor":[
					0.38274499773979187,
					0.5481290221214294,
					0.7176470160484314,
					1
				],
				"metallicFactor":0,
				"roughnessFactor":0.3675444722175598
			}
		}
	],
	"meshes":[
		{
			"name":"one mad.obj",
			"primitives":[
				{
					"attributes":{
						"POSITION":0,
						"NORMAL":1
					},
					"indices":2,
					"material":0
				}
			]
		}
	],
	"accessors":[
		{
			"bufferView":0,
			"componentType":5126,
			"count":56560,
			"max":[
				68.2970962524414,
				31.283000946044922,
				0
			],
			"min":[
				-68.2970962524414,
				-31.283000946044922,
				-223.49899291992188
			],
			"type":"VEC3"
		},
		{
			"bufferView":1,
			"componentType":5126,
			"count":56560,
			"type":"VEC3"
		},
		{
			"bufferView":2,
			"componentType":5123,
			"count":138519,
			"type":"SCALAR"
		}
	],
	"bufferViews":[
		{
			"buffer":0,
			"byteLength":678720,
			"byteOffset":0,
			"target":34962
		},
		{
			"buffer":0,
			"byteLength":678720,
			"byteOffset":678720,
			"target":34962
		},
		{
			"buffer":0,
			"byteLength":277038,
			"byteOffset":1357440,
			"target":34963
		}
	],
	"buffers":[
		{
			"byteLength":1634480,
			"uri":"one%20mad.bin"
		}
	]
}
